<svg width="1000" height="1000" viewBox="0 0 1000 1000" fill="none" xmlns="http://www.w3.org/2000/svg">
<rect width="1000" height="1000" rx="150" fill="url(#paint0_linear_141_4)"/>
<path d="M84.2 640V620.2H110.66V528.4H84.2V508.6H159.8V528.4H133.34V620.2H159.8V640H84.2ZM188.89 640V508.6H216.43L252.97 614.8C252.61 610.96 252.19 606.46 251.71 601.3C251.35 596.02 251.05 590.68 250.81 585.28C250.57 579.76 250.45 574.96 250.45 570.88V508.6H270.97V640H243.43L207.25 533.8C207.49 537.28 207.79 541.48 208.15 546.4C208.51 551.32 208.81 556.36 209.05 561.52C209.29 566.68 209.41 571.42 209.41 575.74V640H188.89ZM297.359 640V508.6H336.419C345.299 508.6 352.979 510.28 359.459 513.64C366.059 517 371.159 521.74 374.759 527.86C378.359 533.98 380.159 541.24 380.159 549.64V598.78C380.159 607.06 378.359 614.32 374.759 620.56C371.159 626.68 366.059 631.48 359.459 634.96C352.979 638.32 345.299 640 336.419 640H297.359ZM319.859 619.3H336.419C342.899 619.3 348.059 617.5 351.899 613.9C355.739 610.18 357.659 605.14 357.659 598.78V549.64C357.659 543.4 355.739 538.48 351.899 534.88C348.059 531.16 342.899 529.3 336.419 529.3H319.859V619.3ZM407.629 640V508.6H486.469V528.22H429.769V562.42H480.169V581.86H429.769V620.38H486.469V640H407.629ZM539.139 640L506.019 508.6H529.419L549.219 594.28C550.299 598.48 551.319 602.98 552.279 607.78C553.239 612.58 553.959 616.48 554.439 619.48C554.919 616.48 555.579 612.58 556.419 607.78C557.259 602.98 558.159 598.42 559.119 594.1L578.739 508.6H601.419L568.299 640H539.139ZM122.36 879.8C113.36 879.8 105.56 878.3 98.96 875.3C92.36 872.3 87.26 868.04 83.66 862.52C80.18 856.88 78.38 850.28 78.26 842.72H100.76C100.76 848.12 102.68 852.38 106.52 855.5C110.48 858.5 115.82 860 122.54 860C129.02 860 134.06 858.5 137.66 855.5C141.38 852.5 143.24 848.36 143.24 843.08C143.24 838.64 141.92 834.8 139.28 831.56C136.76 828.2 133.1 825.92 128.3 824.72L113.18 820.58C102.86 817.94 94.88 813.2 89.24 806.36C83.72 799.52 80.96 791.24 80.96 781.52C80.96 774.08 82.64 767.6 86 762.08C89.36 756.56 94.1 752.3 100.22 749.3C106.46 746.3 113.78 744.8 122.18 744.8C134.9 744.8 144.98 748.1 152.42 754.7C159.86 761.18 163.64 769.94 163.76 780.98H141.26C141.26 775.82 139.58 771.8 136.22 768.92C132.86 765.92 128.12 764.42 122 764.42C116.12 764.42 111.56 765.8 108.32 768.56C105.08 771.32 103.46 775.22 103.46 780.26C103.46 784.82 104.66 788.72 107.06 791.96C109.58 795.08 113.18 797.3 117.86 798.62L133.52 802.94C143.96 805.58 151.94 810.32 157.46 817.16C162.98 823.88 165.74 832.22 165.74 842.18C165.74 849.62 163.94 856.22 160.34 861.98C156.74 867.62 151.7 872 145.22 875.12C138.74 878.24 131.12 879.8 122.36 879.8ZM229.93 879.8C221.53 879.8 214.21 878.24 207.97 875.12C201.85 871.88 197.11 867.38 193.75 861.62C190.51 855.74 188.89 848.84 188.89 840.92V783.68C188.89 775.76 190.51 768.92 193.75 763.16C197.11 757.28 201.85 752.78 207.97 749.66C214.21 746.42 221.53 744.8 229.93 744.8C238.45 744.8 245.77 746.42 251.89 749.66C258.01 752.78 262.69 757.28 265.93 763.16C269.29 768.92 270.97 775.7 270.97 783.5V840.92C270.97 848.84 269.29 855.74 265.93 861.62C262.69 867.38 258.01 871.88 251.89 875.12C245.77 878.24 238.45 879.8 229.93 879.8ZM229.93 860C236.05 860 240.67 858.38 243.79 855.14C246.91 851.78 248.47 847.04 248.47 840.92V783.68C248.47 777.44 246.91 772.7 243.79 769.46C240.67 766.22 236.05 764.6 229.93 764.6C223.81 764.6 219.19 766.22 216.07 769.46C212.95 772.7 211.39 777.44 211.39 783.68V840.92C211.39 847.04 212.95 851.78 216.07 855.14C219.31 858.38 223.93 860 229.93 860ZM302.399 878V746.6H324.899V857.12H380.699V878H302.399ZM445.789 879.8C432.949 879.8 422.869 876.32 415.549 869.36C408.349 862.28 404.749 852.68 404.749 840.56V746.6H427.429V840.38C427.429 846.62 428.989 851.48 432.109 854.96C435.229 858.44 439.789 860.18 445.789 860.18C451.669 860.18 456.169 858.44 459.289 854.96C462.529 851.48 464.149 846.62 464.149 840.38V746.6H486.829V840.56C486.829 852.68 483.229 862.28 476.029 869.36C468.829 876.32 458.749 879.8 445.789 879.8ZM542.379 878V767.48H507.999V746.6H599.439V767.48H565.059V878H542.379ZM623.848 878V858.2H650.308V766.4H623.848V746.6H699.448V766.4H672.988V858.2H699.448V878H623.848ZM769.578 879.8C761.178 879.8 753.858 878.24 747.618 875.12C741.498 871.88 736.758 867.38 733.398 861.62C730.158 855.74 728.538 848.84 728.538 840.92V783.68C728.538 775.76 730.158 768.92 733.398 763.16C736.758 757.28 741.498 752.78 747.618 749.66C753.858 746.42 761.178 744.8 769.578 744.8C778.098 744.8 785.418 746.42 791.538 749.66C797.658 752.78 802.338 757.28 805.578 763.16C808.938 768.92 810.618 775.7 810.618 783.5V840.92C810.618 848.84 808.938 855.74 805.578 861.62C802.338 867.38 797.658 871.88 791.538 875.12C785.418 878.24 778.098 879.8 769.578 879.8ZM769.578 860C775.698 860 780.318 858.38 783.438 855.14C786.558 851.78 788.118 847.04 788.118 840.92V783.68C788.118 777.44 786.558 772.7 783.438 769.46C780.318 766.22 775.698 764.6 769.578 764.6C763.458 764.6 758.838 766.22 755.718 769.46C752.598 772.7 751.038 777.44 751.038 783.68V840.92C751.038 847.04 752.598 851.78 755.718 855.14C758.958 858.38 763.578 860 769.578 860ZM836.468 878V746.6H864.008L900.548 852.8C900.188 848.96 899.768 844.46 899.288 839.3C898.928 834.02 898.628 828.68 898.388 823.28C898.148 817.76 898.028 812.96 898.028 808.88V746.6H918.548V878H891.008L854.828 771.8C855.068 775.28 855.368 779.48 855.728 784.4C856.088 789.32 856.388 794.36 856.628 799.52C856.868 804.68 856.988 809.42 856.988 813.74V878H836.468Z" fill="white"/>
<defs>
<linearGradient id="paint0_linear_141_4" x1="500" y1="0" x2="500" y2="1000" gradientUnits="userSpaceOnUse">
<stop stop-color="#666666"/>
<stop offset="1" stop-color="#414141"/>
</linearGradient>
</defs>
</svg>
